<?xml version="1.0" encoding="UTF-8"?>
<svg xmlns="http://www.w3.org/2000/svg" width="1600" height="1050" viewBox="0 0 1600 1050" role="img" aria-label="VilnoEDO final branding">
  <rect width="1600" height="1050" fill="#F8FAFC" />
  <text x="80" y="82" fill="#171A1C" font-family="Inter, Arial, Helvetica, sans-serif" font-size="42" font-weight="780">VilnoEDO / ВільноЕДО</text>
  <text x="80" y="122" fill="#64748B" font-family="Inter, Arial, Helvetica, sans-serif" font-size="20">Final Concept 3: document + signature + check seal. Product proportions match Documenso assets.</text>

  <rect x="80" y="175" width="1440" height="250" rx="18" fill="#FFFFFF" stroke="#E2E8F0" />
  
    <g transform="translate(125 218) scale(0.400355871886121)">
      
    <g fill="none" stroke="#171A1C" stroke-linecap="round" stroke-linejoin="round">
      <path stroke-width="18" d="M84 38h132l62 62v180H84z" />
      <path stroke-width="18" d="M216 38v70h62" />
      <path stroke-width="15" d="M120 108h54" />
      <path stroke-width="15" d="M120 144h54" />
      <path stroke-width="17" d="M116 226c24-34 51-76 69-54 17 21-26 66-62 75 31-11 52-28 75-8 18 16 28 2 48-8 19-9 36 5 56 4" />
      <path stroke-width="18" d="M84 280h136" />
    </g>
    <g fill="none" stroke="#7ED957" stroke-linecap="round" stroke-linejoin="round">
      <circle cx="268" cy="222" r="62" stroke-width="18" />
      <path stroke-width="19" d="m236 222 24 24 43-48" />
    </g>
  
      <text x="430" y="214" fill="#171A1C" font-family="Inter, Arial, Helvetica, sans-serif" font-size="184" font-weight="760" letter-spacing="0">VilnoEDO</text>
    </g>
  
  
    <g transform="translate(125 315) scale(0.400355871886121)">
      
    <g fill="none" stroke="#171A1C" stroke-linecap="round" stroke-linejoin="round">
      <path stroke-width="18" d="M84 38h132l62 62v180H84z" />
      <path stroke-width="18" d="M216 38v70h62" />
      <path stroke-width="15" d="M120 108h54" />
      <path stroke-width="15" d="M120 144h54" />
      <path stroke-width="17" d="M116 226c24-34 51-76 69-54 17 21-26 66-62 75 31-11 52-28 75-8 18 16 28 2 48-8 19-9 36 5 56 4" />
      <path stroke-width="18" d="M84 280h136" />
    </g>
    <g fill="none" stroke="#7ED957" stroke-linecap="round" stroke-linejoin="round">
      <circle cx="268" cy="222" r="62" stroke-width="18" />
      <path stroke-width="19" d="m236 222 24 24 43-48" />
    </g>
  
      <text x="430" y="214" fill="#171A1C" font-family="Inter, Arial, Helvetica, sans-serif" font-size="184" font-weight="760" letter-spacing="0">ВільноЕДО</text>
    </g>
  
  <text x="1090" y="250" fill="#171A1C" font-family="Inter, Arial, Helvetica, sans-serif" font-size="20" font-weight="700">Primary</text>
  <text x="1090" y="282" fill="#64748B" font-family="Inter, Arial, Helvetica, sans-serif" font-size="18">document/wordmark #171A1C</text>
  <text x="1090" y="312" fill="#64748B" font-family="Inter, Arial, Helvetica, sans-serif" font-size="18">check seal #7ED957</text>

  <rect x="80" y="470" width="690" height="250" rx="18" fill="#171A1C" />
  
    <g transform="translate(120 526) scale(0.2491103202846975)">
      
    <g fill="none" stroke="#FFFFFF" stroke-linecap="round" stroke-linejoin="round">
      <path stroke-width="18" d="M84 38h132l62 62v180H84z" />
      <path stroke-width="18" d="M216 38v70h62" />
      <path stroke-width="15" d="M120 108h54" />
      <path stroke-width="15" d="M120 144h54" />
      <path stroke-width="17" d="M116 226c24-34 51-76 69-54 17 21-26 66-62 75 31-11 52-28 75-8 18 16 28 2 48-8 19-9 36 5 56 4" />
      <path stroke-width="18" d="M84 280h136" />
    </g>
    <g fill="none" stroke="#7ED957" stroke-linecap="round" stroke-linejoin="round">
      <circle cx="268" cy="222" r="62" stroke-width="18" />
      <path stroke-width="19" d="m236 222 24 24 43-48" />
    </g>
  
      <text x="430" y="214" fill="#FFFFFF" font-family="Inter, Arial, Helvetica, sans-serif" font-size="184" font-weight="760" letter-spacing="0">VilnoEDO</text>
    </g>
  
  <text x="120" y="660" fill="#FFFFFF" font-family="Inter, Arial, Helvetica, sans-serif" font-size="20" font-weight="700">Inverse</text>
  <text x="120" y="690" fill="#CBD5E1" font-family="Inter, Arial, Helvetica, sans-serif" font-size="18">white logo, green check, ink background</text>

  <rect x="830" y="470" width="690" height="250" rx="18" fill="#FFFFFF" stroke="#E2E8F0" />
  <g transform="translate(875 520) scale(1.7619047619047619)">
    <g fill="none" stroke="#171A1C" stroke-linecap="round" stroke-linejoin="round">
      <path stroke-width="4.8" d="M14 9.5h34.6L65 25.8V73H14z" />
      <path stroke-width="4.8" d="M48.6 9.5V28H65" />
      <path stroke-width="3.8" d="M23.6 28.5h14.2" />
      <path stroke-width="3.8" d="M23.6 38h14.2" />
      <path stroke-width="4.4" d="M22.4 59.6c6.2-8.9 13.4-20 18.1-14.2 4.4 5.5-6.8 17.3-16.3 19.7 8.1-2.9 13.7-7.4 19.7-2.1 4.7 4.1 7.3.5 12.5-2.1 5-2.4 9.5 1.3 14.6 1.1" />
      <path stroke-width="4.8" d="M14 73h35.6" />
    </g>
    <g fill="none" stroke="#7ED957" stroke-linecap="round" stroke-linejoin="round">
      <circle cx="70.4" cy="58.4" r="16.2" stroke-width="4.8" />
      <path stroke-width="5" d="m62 58.4 6.2 6.2 11.2-12.6" />
    </g>
  </g>
  
  <g transform="translate(1100 514)">
    <rect width="160" height="160" rx="35.2" fill="#171A1C" />
    <g transform="translate(26.240000000000002 26.240000000000002) scale(1.28)">
      
    <g fill="none" stroke="#FFFFFF" stroke-linecap="round" stroke-linejoin="round">
      <path stroke-width="4.8" d="M14 9.5h34.6L65 25.8V73H14z" />
      <path stroke-width="4.8" d="M48.6 9.5V28H65" />
      <path stroke-width="3.8" d="M23.6 28.5h14.2" />
      <path stroke-width="3.8" d="M23.6 38h14.2" />
      <path stroke-width="4.4" d="M22.4 59.6c6.2-8.9 13.4-20 18.1-14.2 4.4 5.5-6.8 17.3-16.3 19.7 8.1-2.9 13.7-7.4 19.7-2.1 4.7 4.1 7.3.5 12.5-2.1 5-2.4 9.5 1.3 14.6 1.1" />
      <path stroke-width="4.8" d="M14 73h35.6" />
    </g>
    <g fill="none" stroke="#7ED957" stroke-linecap="round" stroke-linejoin="round">
      <circle cx="70.4" cy="58.4" r="16.2" stroke-width="4.8" />
      <path stroke-width="5" d="m62 58.4 6.2 6.2 11.2-12.6" />
    </g>
  
    </g>
  </g>

  
  <g transform="translate(1335 562)">
    <rect width="64" height="64" rx="14.08" fill="#171A1C" />
    <g transform="translate(10.496 10.496) scale(0.512)">
      
    <g fill="none" stroke="#FFFFFF" stroke-linecap="round" stroke-linejoin="round">
      <path stroke-width="4.8" d="M14 9.5h34.6L65 25.8V73H14z" />
      <path stroke-width="4.8" d="M48.6 9.5V28H65" />
      <path stroke-width="3.8" d="M23.6 28.5h14.2" />
      <path stroke-width="3.8" d="M23.6 38h14.2" />
      <path stroke-width="4.4" d="M22.4 59.6c6.2-8.9 13.4-20 18.1-14.2 4.4 5.5-6.8 17.3-16.3 19.7 8.1-2.9 13.7-7.4 19.7-2.1 4.7 4.1 7.3.5 12.5-2.1 5-2.4 9.5 1.3 14.6 1.1" />
      <path stroke-width="4.8" d="M14 73h35.6" />
    </g>
    <g fill="none" stroke="#7ED957" stroke-linecap="round" stroke-linejoin="round">
      <circle cx="70.4" cy="58.4" r="16.2" stroke-width="4.8" />
      <path stroke-width="5" d="m62 58.4 6.2 6.2 11.2-12.6" />
    </g>
  
    </g>
  </g>

  <text x="875" y="690" fill="#64748B" font-family="Inter, Arial, Helvetica, sans-serif" font-size="18">icon.svg</text>
  <text x="1100" y="690" fill="#64748B" font-family="Inter, Arial, Helvetica, sans-serif" font-size="18">app icon</text>
  <text x="1335" y="690" fill="#64748B" font-family="Inter, Arial, Helvetica, sans-serif" font-size="18">favicon</text>

  <rect x="80" y="765" width="1440" height="190" rx="18" fill="#FFFFFF" stroke="#E2E8F0" />
  
    <g transform="translate(125 812) scale(0.2313167259786477)">
      
    <g fill="none" stroke="#171A1C" stroke-linecap="round" stroke-linejoin="round">
      <path stroke-width="18" d="M84 38h132l62 62v180H84z" />
      <path stroke-width="18" d="M216 38v70h62" />
      <path stroke-width="15" d="M120 108h54" />
      <path stroke-width="15" d="M120 144h54" />
      <path stroke-width="17" d="M116 226c24-34 51-76 69-54 17 21-26 66-62 75 31-11 52-28 75-8 18 16 28 2 48-8 19-9 36 5 56 4" />
      <path stroke-width="18" d="M84 280h136" />
    </g>
    <g fill="none" stroke="#171A1C" stroke-linecap="round" stroke-linejoin="round">
      <circle cx="268" cy="222" r="62" stroke-width="18" />
      <path stroke-width="19" d="m236 222 24 24 43-48" />
    </g>
  
      <text x="430" y="214" fill="#171A1C" font-family="Inter, Arial, Helvetica, sans-serif" font-size="184" font-weight="760" letter-spacing="0">VilnoEDO</text>
    </g>
  
  
    <g transform="translate(125 875) scale(0.2313167259786477)">
      
    <g fill="none" stroke="#171A1C" stroke-linecap="round" stroke-linejoin="round">
      <path stroke-width="18" d="M84 38h132l62 62v180H84z" />
      <path stroke-width="18" d="M216 38v70h62" />
      <path stroke-width="15" d="M120 108h54" />
      <path stroke-width="15" d="M120 144h54" />
      <path stroke-width="17" d="M116 226c24-34 51-76 69-54 17 21-26 66-62 75 31-11 52-28 75-8 18 16 28 2 48-8 19-9 36 5 56 4" />
      <path stroke-width="18" d="M84 280h136" />
    </g>
    <g fill="none" stroke="#171A1C" stroke-linecap="round" stroke-linejoin="round">
      <circle cx="268" cy="222" r="62" stroke-width="18" />
      <path stroke-width="19" d="m236 222 24 24 43-48" />
    </g>
  
      <text x="430" y="214" fill="#171A1C" font-family="Inter, Arial, Helvetica, sans-serif" font-size="184" font-weight="760" letter-spacing="0">ВільноЕДО</text>
    </g>
  
  <text x="735" y="850" fill="#171A1C" font-family="Inter, Arial, Helvetica, sans-serif" font-size="20" font-weight="700">Monochrome</text>
  <text x="735" y="882" fill="#64748B" font-family="Inter, Arial, Helvetica, sans-serif" font-size="18">for legal documents, stamps, print, one-color contexts</text>
</svg>
